<?xml version="1.0" standalone="no"?><!-- Generator: Gravit.io --><svg xmlns="http://www.w3.org/2000/svg" xmlns:xlink="http://www.w3.org/1999/xlink" style="isolation:isolate" viewBox="4 33 629.883 273.926" width="629.883" height="273.926"><g opacity="0.1"><path d=" M 172.457 36.662 L 172.457 199.077 L 199.557 199.077 L 199.557 246.684 L 172.457 246.684 L 172.457 303.264 L 110.75 303.264 L 110.75 246.684 L 7.662 246.684 L 4 208.964 L 110.75 37.211 L 110.75 36.662 L 172.457 36.662 Z  M 106.905 123.271 L 62.777 199.077 L 110.75 199.077 L 110.75 117.045 L 106.905 123.271 Z  M 411.776 145.793 L 411.776 194.316 L 411.776 194.316 Q 411.776 248.332 387.514 277.629 L 387.514 277.629 L 387.514 277.629 Q 363.253 306.926 319.125 306.926 L 319.125 306.926 L 319.125 306.926 Q 274.63 306.926 250.277 277.446 L 250.277 277.446 L 250.277 277.446 Q 225.924 247.966 225.924 194.316 L 225.924 194.316 L 225.924 145.61 L 225.924 145.61 Q 225.924 91.594 250.185 62.297 L 250.185 62.297 L 250.185 62.297 Q 274.447 33 318.758 33 L 318.758 33 L 318.758 33 Q 363.07 33 387.423 62.48 L 387.423 62.48 L 387.423 62.48 Q 411.776 91.96 411.776 145.793 L 411.776 145.793 Z  M 350.069 203.654 L 350.069 137.736 L 350.069 137.736 Q 350.069 108.989 342.562 94.798 L 342.562 94.798 L 342.562 94.798 Q 335.055 80.607 318.758 80.607 L 318.758 80.607 L 318.758 80.607 Q 302.828 80.607 295.595 93.791 L 295.595 93.791 L 295.595 93.791 Q 288.363 106.975 287.813 133.708 L 287.813 133.708 L 287.813 201.823 L 287.813 201.823 Q 287.813 231.669 295.321 245.494 L 295.321 245.494 L 295.321 245.494 Q 302.828 259.318 319.125 259.318 L 319.125 259.318 L 319.125 259.318 Q 334.872 259.318 342.379 245.86 L 342.379 245.86 L 342.379 245.86 Q 349.886 232.402 350.069 203.654 L 350.069 203.654 Z  M 606.783 36.662 L 606.783 199.077 L 633.883 199.077 L 633.883 246.684 L 606.783 246.684 L 606.783 303.264 L 545.077 303.264 L 545.077 246.684 L 441.988 246.684 L 438.326 208.964 L 545.077 37.211 L 545.077 36.662 L 606.783 36.662 Z  M 541.231 123.271 L 497.103 199.077 L 545.077 199.077 L 545.077 117.045 L 541.231 123.271 Z " fill-rule="evenodd" fill="rgb(0,0,0)"/></g></svg>